<svg id="Capa_1" enable-background="new 0 0 512 512" height="512" viewBox="0 0 512 512" width="512" xmlns="http://www.w3.org/2000/svg"><g><path d="m60 481h30v-60h61v60h330v-60h31v-330h-422v-60h-90v30h60v60h-60v120h60v30h-60v120h60zm121-60h30v30h-30zm210 0v30h-30v-30zm-60 30h-30v-30h30zm-60 0h-30v-30h30zm180 0h-30v-30h30zm31-330v270h-392v-270zm-452 90v-60h30v60zm0 150v-60h30v60z"/><path d="m346 361c57.897 0 105-47.103 105-105s-47.103-105-105-105-105 47.103-105 105 47.103 105 105 105zm-70.376-79.073c5.973 1.447 12.803 2.394 20.496 2.394 4.426 0 9.145-.324 14.134-1.029 7.877 10.293 20.086 17.096 33.882 17.661 1.07 14.46-2.595 24.284-5.558 29.677-29.001-2.863-53.2-22.31-62.954-48.703zm70.376-10.927c-8.271 0-15-6.729-15-15s6.729-15 15-15 15 6.729 15 15-6.729 15-15 15zm25.926 55.376c2.28-9.407 3.284-20.972 1.356-34.623 10.298-7.877 17.104-20.089 17.67-33.889 14.459-1.07 24.284 2.595 29.677 5.558-2.862 29.002-22.31 53.2-48.703 62.954zm44.45-96.302c-9.407-2.28-20.972-3.284-34.623-1.356-7.877-10.297-20.089-17.104-33.888-17.67-1.07-14.46 2.595-24.284 5.558-29.677 29.001 2.862 53.199 22.309 62.953 48.703zm-96.302-44.45c-2.28 9.407-3.284 20.972-1.356 34.623-10.298 7.877-17.104 20.089-17.67 33.888-14.459 1.07-24.284-2.595-29.677-5.558 2.862-29.001 22.31-53.199 48.703-62.953z"/><path d="m121 151h30v30h-30z"/><path d="m181 151h30v30h-30z"/><path d="m121 211h30v30h-30z"/><path d="m181 211h30v30h-30z"/><path d="m121 271h30v30h-30z"/><path d="m181 271h30v30h-30z"/><path d="m121 331h30v30h-30z"/><path d="m181 331h30v30h-30z"/></g></svg>